solid walls
   facet normal -2.081668e-016 0.000000e+000 -1.000000e+000
      outer loop
         vertex 2.400000e-001 1.000000e-002 0.000000e+000
         vertex 2.400000e-001 0.000000e+000 0.000000e+000
         vertex 1.400000e-001 1.000000e-002 0.000000e+000
      endloop
   endfacet
   facet normal -2.081668e-016 0.000000e+000 -1.000000e+000
      outer loop
         vertex 1.400000e-001 1.000000e-002 0.000000e+000
         vertex 2.400000e-001 0.000000e+000 0.000000e+000
         vertex 1.400000e-001 0.000000e+000 0.000000e+000
      endloop
   endfacet
   facet normal 2.081668e-016 0.000000e+000 1.000000e+000
      outer loop
         vertex 2.400000e-001 0.000000e+000 9.999998e-003
         vertex 2.400000e-001 1.000000e-002 9.999998e-003
         vertex 1.400000e-001 0.000000e+000 9.999998e-003
      endloop
   endfacet
   facet normal 2.081668e-016 0.000000e+000 1.000000e+000
      outer loop
         vertex 1.400000e-001 0.000000e+000 9.999998e-003
         vertex 2.400000e-001 1.000000e-002 9.999998e-003
         vertex 1.400000e-001 1.000000e-002 9.999998e-003
      endloop
   endfacet
   facet normal -5.807913e-002 0.000000e+000 -9.983119e-001
      outer loop
         vertex 1.400000e-001 1.000000e-002 0.000000e+000
         vertex 1.400000e-001 0.000000e+000 0.000000e+000
         vertex 1.356588e-001 0.000000e+000 3.798008e-004
      endloop
   endfacet
   facet normal -1.161583e-001 0.000000e+000 -9.932307e-001
      outer loop
         vertex 1.400000e-001 1.000000e-002 0.000000e+000
         vertex 1.356588e-001 0.000000e+000 3.798008e-004
         vertex 1.356588e-001 1.000000e-002 3.798008e-004
      endloop
   endfacet
   facet normal -2.305519e-001 0.000000e+000 -9.730600e-001
      outer loop
         vertex 1.356588e-001 1.000000e-002 3.798008e-004
         vertex 1.356588e-001 0.000000e+000 3.798008e-004
         vertex 1.314495e-001 0.000000e+000 1.507685e-003
      endloop
   endfacet
   facet normal -2.868663e-001 0.000000e+000 -9.579706e-001
      outer loop
         vertex 1.356588e-001 1.000000e-002 3.798008e-004
         vertex 1.314495e-001 0.000000e+000 1.507685e-003
         vertex 1.314495e-001 1.000000e-002 1.507685e-003
      endloop
   endfacet
   facet normal -3.960194e-001 0.000000e+000 -9.182422e-001
      outer loop
         vertex 1.314495e-001 1.000000e-002 1.507685e-003
         vertex 1.314495e-001 0.000000e+000 1.507685e-003
         vertex 1.275000e-001 0.000000e+000 3.349364e-003
      endloop
   endfacet
   facet normal -4.488580e-001 0.000000e+000 -8.936031e-001
      outer loop
         vertex 1.314495e-001 1.000000e-002 1.507685e-003
         vertex 1.275000e-001 0.000000e+000 3.349364e-003
         vertex 1.275000e-001 1.000000e-002 3.349364e-003
      endloop
   endfacet
   facet normal -5.494540e-001 0.000000e+000 -8.355240e-001
      outer loop
         vertex 1.275000e-001 1.000000e-002 3.349364e-003
         vertex 1.275000e-001 0.000000e+000 3.349364e-003
         vertex 1.239303e-001 0.000000e+000 5.848888e-003
      endloop
   endfacet
   facet normal -5.972114e-001 0.000000e+000 -8.020838e-001
      outer loop
         vertex 1.275000e-001 1.000000e-002 3.349364e-003
         vertex 1.239303e-001 0.000000e+000 5.848888e-003
         vertex 1.239303e-001 1.000000e-002 5.848888e-003
      endloop
   endfacet
   facet normal -6.861938e-001 0.000000e+000 -7.274188e-001
      outer loop
         vertex 1.239303e-001 1.000000e-002 5.848888e-003
         vertex 1.239303e-001 0.000000e+000 5.848888e-003
         vertex 1.208489e-001 0.000000e+000 8.930307e-003
      endloop
   endfacet
   facet normal -7.274188e-001 0.000000e+000 -6.861938e-001
      outer loop
         vertex 1.239303e-001 1.000000e-002 5.848888e-003
         vertex 1.208489e-001 0.000000e+000 8.930307e-003
         vertex 1.208489e-001 1.000000e-002 8.930307e-003
      endloop
   endfacet
   facet normal -8.020838e-001 0.000000e+000 -5.972114e-001
      outer loop
         vertex 1.208489e-001 1.000000e-002 8.930307e-003
         vertex 1.208489e-001 0.000000e+000 8.930307e-003
         vertex 1.183494e-001 0.000000e+000 1.250000e-002
      endloop
   endfacet
   facet normal -8.355240e-001 0.000000e+000 -5.494540e-001
      outer loop
         vertex 1.208489e-001 1.000000e-002 8.930307e-003
         vertex 1.183494e-001 0.000000e+000 1.250000e-002
         vertex 1.183494e-001 1.000000e-002 1.250000e-002
      endloop
   endfacet
   facet normal -8.936031e-001 0.000000e+000 -4.488580e-001
      outer loop
         vertex 1.183494e-001 1.000000e-002 1.250000e-002
         vertex 1.183494e-001 0.000000e+000 1.250000e-002
         vertex 1.165077e-001 0.000000e+000 1.644949e-002
      endloop
   endfacet
   facet normal -9.182422e-001 0.000000e+000 -3.960194e-001
      outer loop
         vertex 1.183494e-001 1.000000e-002 1.250000e-002
         vertex 1.165077e-001 0.000000e+000 1.644949e-002
         vertex 1.165077e-001 1.000000e-002 1.644949e-002
      endloop
   endfacet
   facet normal -9.579706e-001 0.000000e+000 -2.868663e-001
      outer loop
         vertex 1.165077e-001 1.000000e-002 1.644949e-002
         vertex 1.165077e-001 0.000000e+000 1.644949e-002
         vertex 1.153798e-001 0.000000e+000 2.065879e-002
      endloop
   endfacet
   facet normal -9.730600e-001 0.000000e+000 -2.305519e-001
      outer loop
         vertex 1.165077e-001 1.000000e-002 1.644949e-002
         vertex 1.153798e-001 0.000000e+000 2.065879e-002
         vertex 1.153798e-001 1.000000e-002 2.065879e-002
      endloop
   endfacet
   facet normal -9.932307e-001 0.000000e+000 -1.161583e-001
      outer loop
         vertex 1.153798e-001 1.000000e-002 2.065879e-002
         vertex 1.153798e-001 0.000000e+000 2.065879e-002
         vertex 1.150000e-001 0.000000e+000 2.500000e-002
      endloop
   endfacet
   facet normal -9.983119e-001 0.000000e+000 -5.807913e-002
      outer loop
         vertex 1.153798e-001 1.000000e-002 2.065879e-002
         vertex 1.150000e-001 0.000000e+000 2.500000e-002
         vertex 1.150000e-001 1.000000e-002 2.500000e-002
      endloop
   endfacet
   facet normal 9.983119e-001 0.000000e+000 5.807913e-002
      outer loop
         vertex 1.250000e-001 1.000000e-002 2.500000e-002
         vertex 1.250000e-001 0.000000e+000 2.500000e-002
         vertex 1.252279e-001 0.000000e+000 2.239528e-002
      endloop
   endfacet
   facet normal 9.932307e-001 0.000000e+000 1.161583e-001
      outer loop
         vertex 1.250000e-001 1.000000e-002 2.500000e-002
         vertex 1.252279e-001 0.000000e+000 2.239528e-002
         vertex 1.252279e-001 1.000000e-002 2.239528e-002
      endloop
   endfacet
   facet normal 9.730600e-001 0.000000e+000 2.305519e-001
      outer loop
         vertex 1.252279e-001 1.000000e-002 2.239528e-002
         vertex 1.252279e-001 0.000000e+000 2.239528e-002
         vertex 1.259046e-001 0.000000e+000 1.986970e-002
      endloop
   endfacet
   facet normal 9.579706e-001 0.000000e+000 2.868663e-001
      outer loop
         vertex 1.252279e-001 1.000000e-002 2.239528e-002
         vertex 1.259046e-001 0.000000e+000 1.986970e-002
         vertex 1.259046e-001 1.000000e-002 1.986970e-002
      endloop
   endfacet
   facet normal 9.182422e-001 0.000000e+000 3.960194e-001
      outer loop
         vertex 1.259046e-001 1.000000e-002 1.986970e-002
         vertex 1.259046e-001 0.000000e+000 1.986970e-002
         vertex 1.270096e-001 0.000000e+000 1.750000e-002
      endloop
   endfacet
   facet normal 8.936031e-001 0.000000e+000 4.488580e-001
      outer loop
         vertex 1.259046e-001 1.000000e-002 1.986970e-002
         vertex 1.270096e-001 0.000000e+000 1.750000e-002
         vertex 1.270096e-001 1.000000e-002 1.750000e-002
      endloop
   endfacet
   facet normal 8.355240e-001 0.000000e+000 5.494540e-001
      outer loop
         vertex 1.270096e-001 1.000000e-002 1.750000e-002
         vertex 1.270096e-001 0.000000e+000 1.750000e-002
         vertex 1.285093e-001 0.000000e+000 1.535818e-002
      endloop
   endfacet
   facet normal 8.020838e-001 0.000000e+000 5.972114e-001
      outer loop
         vertex 1.270096e-001 1.000000e-002 1.750000e-002
         vertex 1.285093e-001 0.000000e+000 1.535818e-002
         vertex 1.285093e-001 1.000000e-002 1.535818e-002
      endloop
   endfacet
   facet normal 7.274188e-001 0.000000e+000 6.861938e-001
      outer loop
         vertex 1.285093e-001 1.000000e-002 1.535818e-002
         vertex 1.285093e-001 0.000000e+000 1.535818e-002
         vertex 1.303582e-001 0.000000e+000 1.350933e-002
      endloop
   endfacet
   facet normal 6.861938e-001 0.000000e+000 7.274188e-001
      outer loop
         vertex 1.285093e-001 1.000000e-002 1.535818e-002
         vertex 1.303582e-001 0.000000e+000 1.350933e-002
         vertex 1.303582e-001 1.000000e-002 1.350933e-002
      endloop
   endfacet
   facet normal 5.972114e-001 0.000000e+000 8.020838e-001
      outer loop
         vertex 1.303582e-001 1.000000e-002 1.350933e-002
         vertex 1.303582e-001 0.000000e+000 1.350933e-002
         vertex 1.325000e-001 0.000000e+000 1.200962e-002
      endloop
   endfacet
   facet normal 5.494540e-001 0.000000e+000 8.355240e-001
      outer loop
         vertex 1.303582e-001 1.000000e-002 1.350933e-002
         vertex 1.325000e-001 0.000000e+000 1.200962e-002
         vertex 1.325000e-001 1.000000e-002 1.200962e-002
      endloop
   endfacet
   facet normal 4.488580e-001 0.000000e+000 8.936031e-001
      outer loop
         vertex 1.325000e-001 1.000000e-002 1.200962e-002
         vertex 1.325000e-001 0.000000e+000 1.200962e-002
         vertex 1.348697e-001 0.000000e+000 1.090461e-002
      endloop
   endfacet
   facet normal 3.960194e-001 0.000000e+000 9.182422e-001
      outer loop
         vertex 1.325000e-001 1.000000e-002 1.200962e-002
         vertex 1.348697e-001 0.000000e+000 1.090461e-002
         vertex 1.348697e-001 1.000000e-002 1.090461e-002
      endloop
   endfacet
   facet normal 2.868663e-001 0.000000e+000 9.579706e-001
      outer loop
         vertex 1.348697e-001 1.000000e-002 1.090461e-002
         vertex 1.348697e-001 0.000000e+000 1.090461e-002
         vertex 1.373953e-001 0.000000e+000 1.022788e-002
      endloop
   endfacet
   facet normal 2.305519e-001 0.000000e+000 9.730600e-001
      outer loop
         vertex 1.348697e-001 1.000000e-002 1.090461e-002
         vertex 1.373953e-001 0.000000e+000 1.022788e-002
         vertex 1.373953e-001 1.000000e-002 1.022788e-002
      endloop
   endfacet
   facet normal 1.161583e-001 0.000000e+000 9.932307e-001
      outer loop
         vertex 1.373953e-001 1.000000e-002 1.022788e-002
         vertex 1.373953e-001 0.000000e+000 1.022788e-002
         vertex 1.400000e-001 0.000000e+000 9.999998e-003
      endloop
   endfacet
   facet normal 5.807913e-002 0.000000e+000 9.983119e-001
      outer loop
         vertex 1.373953e-001 1.000000e-002 1.022788e-002
         vertex 1.400000e-001 0.000000e+000 9.999998e-003
         vertex 1.400000e-001 1.000000e-002 9.999998e-003
      endloop
   endfacet
   facet normal -1.000000e+000 0.000000e+000 0.000000e+000
      outer loop
         vertex 1.150000e-001 1.000000e-002 2.500000e-002
         vertex 1.150000e-001 0.000000e+000 2.500000e-002
         vertex 1.150000e-001 1.000000e-002 4.500000e-002
      endloop
   endfacet
   facet normal -1.000000e+000 0.000000e+000 0.000000e+000
      outer loop
         vertex 1.150000e-001 1.000000e-002 4.500000e-002
         vertex 1.150000e-001 0.000000e+000 2.500000e-002
         vertex 1.150000e-001 0.000000e+000 4.500000e-002
      endloop
   endfacet
   facet normal 1.000000e+000 0.000000e+000 0.000000e+000
      outer loop
         vertex 1.250000e-001 0.000000e+000 2.500000e-002
         vertex 1.250000e-001 1.000000e-002 2.500000e-002
         vertex 1.250000e-001 0.000000e+000 4.500000e-002
      endloop
   endfacet
   facet normal 1.000000e+000 0.000000e+000 0.000000e+000
      outer loop
         vertex 1.250000e-001 0.000000e+000 4.500000e-002
         vertex 1.250000e-001 1.000000e-002 2.500000e-002
         vertex 1.250000e-001 1.000000e-002 4.500000e-002
      endloop
   endfacet
   facet normal -5.807913e-002 0.000000e+000 -9.983119e-001
      outer loop
         vertex 1.000000e-001 0.000000e+000 6.000000e-002
         vertex 1.000000e-001 1.000000e-002 6.000000e-002
         vertex 1.026047e-001 1.000000e-002 5.977212e-002
      endloop
   endfacet
   facet normal -1.161583e-001 0.000000e+000 -9.932307e-001
      outer loop
         vertex 1.000000e-001 0.000000e+000 6.000000e-002
         vertex 1.026047e-001 1.000000e-002 5.977212e-002
         vertex 1.026047e-001 0.000000e+000 5.977212e-002
      endloop
   endfacet
   facet normal -2.305519e-001 0.000000e+000 -9.730600e-001
      outer loop
         vertex 1.026047e-001 0.000000e+000 5.977212e-002
         vertex 1.026047e-001 1.000000e-002 5.977212e-002
         vertex 1.051303e-001 1.000000e-002 5.909539e-002
      endloop
   endfacet
   facet normal -2.868663e-001 0.000000e+000 -9.579706e-001
      outer loop
         vertex 1.026047e-001 0.000000e+000 5.977212e-002
         vertex 1.051303e-001 1.000000e-002 5.909539e-002
         vertex 1.051303e-001 0.000000e+000 5.909539e-002
      endloop
   endfacet
   facet normal -3.960194e-001 0.000000e+000 -9.182422e-001
      outer loop
         vertex 1.051303e-001 0.000000e+000 5.909539e-002
         vertex 1.051303e-001 1.000000e-002 5.909539e-002
         vertex 1.075000e-001 1.000000e-002 5.799038e-002
      endloop
   endfacet
   facet normal -4.488580e-001 0.000000e+000 -8.936031e-001
      outer loop
         vertex 1.051303e-001 0.000000e+000 5.909539e-002
         vertex 1.075000e-001 1.000000e-002 5.799038e-002
         vertex 1.075000e-001 0.000000e+000 5.799038e-002
      endloop
   endfacet
   facet normal -5.494540e-001 0.000000e+000 -8.355240e-001
      outer loop
         vertex 1.075000e-001 0.000000e+000 5.799038e-002
         vertex 1.075000e-001 1.000000e-002 5.799038e-002
         vertex 1.096418e-001 1.000000e-002 5.649066e-002
      endloop
   endfacet
   facet normal -5.972114e-001 0.000000e+000 -8.020838e-001
      outer loop
         vertex 1.075000e-001 0.000000e+000 5.799038e-002
         vertex 1.096418e-001 1.000000e-002 5.649066e-002
         vertex 1.096418e-001 0.000000e+000 5.649066e-002
      endloop
   endfacet
   facet normal -6.861938e-001 0.000000e+000 -7.274188e-001
      outer loop
         vertex 1.096418e-001 0.000000e+000 5.649066e-002
         vertex 1.096418e-001 1.000000e-002 5.649066e-002
         vertex 1.114907e-001 1.000000e-002 5.464181e-002
      endloop
   endfacet
   facet normal -7.274188e-001 0.000000e+000 -6.861938e-001
      outer loop
         vertex 1.096418e-001 0.000000e+000 5.649066e-002
         vertex 1.114907e-001 1.000000e-002 5.464181e-002
         vertex 1.114907e-001 0.000000e+000 5.464181e-002
      endloop
   endfacet
   facet normal -8.020838e-001 0.000000e+000 -5.972114e-001
      outer loop
         vertex 1.114907e-001 0.000000e+000 5.464181e-002
         vertex 1.114907e-001 1.000000e-002 5.464181e-002
         vertex 1.129904e-001 1.000000e-002 5.250000e-002
      endloop
   endfacet
   facet normal -8.355240e-001 0.000000e+000 -5.494540e-001
      outer loop
         vertex 1.114907e-001 0.000000e+000 5.464181e-002
         vertex 1.129904e-001 1.000000e-002 5.250000e-002
         vertex 1.129904e-001 0.000000e+000 5.250000e-002
      endloop
   endfacet
   facet normal -8.936031e-001 0.000000e+000 -4.488580e-001
      outer loop
         vertex 1.129904e-001 0.000000e+000 5.250000e-002
         vertex 1.129904e-001 1.000000e-002 5.250000e-002
         vertex 1.140954e-001 1.000000e-002 5.013030e-002
      endloop
   endfacet
   facet normal -9.182422e-001 0.000000e+000 -3.960194e-001
      outer loop
         vertex 1.129904e-001 0.000000e+000 5.250000e-002
         vertex 1.140954e-001 1.000000e-002 5.013030e-002
         vertex 1.140954e-001 0.000000e+000 5.013030e-002
      endloop
   endfacet
   facet normal -9.579706e-001 0.000000e+000 -2.868663e-001
      outer loop
         vertex 1.140954e-001 0.000000e+000 5.013030e-002
         vertex 1.140954e-001 1.000000e-002 5.013030e-002
         vertex 1.147721e-001 1.000000e-002 4.760472e-002
      endloop
   endfacet
   facet normal -9.730600e-001 0.000000e+000 -2.305519e-001
      outer loop
         vertex 1.140954e-001 0.000000e+000 5.013030e-002
         vertex 1.147721e-001 1.000000e-002 4.760472e-002
         vertex 1.147721e-001 0.000000e+000 4.760472e-002
      endloop
   endfacet
   facet normal -9.932307e-001 0.000000e+000 -1.161583e-001
      outer loop
         vertex 1.147721e-001 0.000000e+000 4.760472e-002
         vertex 1.147721e-001 1.000000e-002 4.760472e-002
         vertex 1.150000e-001 1.000000e-002 4.500000e-002
      endloop
   endfacet
   facet normal -9.983119e-001 0.000000e+000 -5.807913e-002
      outer loop
         vertex 1.147721e-001 0.000000e+000 4.760472e-002
         vertex 1.150000e-001 1.000000e-002 4.500000e-002
         vertex 1.150000e-001 0.000000e+000 4.500000e-002
      endloop
   endfacet
   facet normal 9.983119e-001 0.000000e+000 5.807913e-002
      outer loop
         vertex 1.250000e-001 0.000000e+000 4.500000e-002
         vertex 1.250000e-001 1.000000e-002 4.500000e-002
         vertex 1.246202e-001 1.000000e-002 4.934120e-002
      endloop
   endfacet
   facet normal 9.932307e-001 0.000000e+000 1.161583e-001
      outer loop
         vertex 1.250000e-001 0.000000e+000 4.500000e-002
         vertex 1.246202e-001 1.000000e-002 4.934120e-002
         vertex 1.246202e-001 0.000000e+000 4.934120e-002
      endloop
   endfacet
   facet normal 9.730600e-001 0.000000e+000 2.305519e-001
      outer loop
         vertex 1.246202e-001 0.000000e+000 4.934120e-002
         vertex 1.246202e-001 1.000000e-002 4.934120e-002
         vertex 1.234923e-001 1.000000e-002 5.355050e-002
      endloop
   endfacet
   facet normal 9.579706e-001 0.000000e+000 2.868663e-001
      outer loop
         vertex 1.246202e-001 0.000000e+000 4.934120e-002
         vertex 1.234923e-001 1.000000e-002 5.355050e-002
         vertex 1.234923e-001 0.000000e+000 5.355050e-002
      endloop
   endfacet
   facet normal 9.182422e-001 0.000000e+000 3.960194e-001
      outer loop
         vertex 1.234923e-001 0.000000e+000 5.355050e-002
         vertex 1.234923e-001 1.000000e-002 5.355050e-002
         vertex 1.216506e-001 1.000000e-002 5.750000e-002
      endloop
   endfacet
   facet normal 8.936031e-001 0.000000e+000 4.488580e-001
      outer loop
         vertex 1.234923e-001 0.000000e+000 5.355050e-002
         vertex 1.216506e-001 1.000000e-002 5.750000e-002
         vertex 1.216506e-001 0.000000e+000 5.750000e-002
      endloop
   endfacet
   facet normal 8.355240e-001 0.000000e+000 5.494540e-001
      outer loop
         vertex 1.216506e-001 0.000000e+000 5.750000e-002
         vertex 1.216506e-001 1.000000e-002 5.750000e-002
         vertex 1.191511e-001 1.000000e-002 6.106969e-002
      endloop
   endfacet
   facet normal 8.020838e-001 0.000000e+000 5.972114e-001
      outer loop
         vertex 1.216506e-001 0.000000e+000 5.750000e-002
         vertex 1.191511e-001 1.000000e-002 6.106969e-002
         vertex 1.191511e-001 0.000000e+000 6.106969e-002
      endloop
   endfacet
   facet normal 7.274188e-001 0.000000e+000 6.861938e-001
      outer loop
         vertex 1.191511e-001 0.000000e+000 6.106969e-002
         vertex 1.191511e-001 1.000000e-002 6.106969e-002
         vertex 1.160697e-001 1.000000e-002 6.415111e-002
      endloop
   endfacet
   facet normal 6.861938e-001 0.000000e+000 7.274188e-001
      outer loop
         vertex 1.191511e-001 0.000000e+000 6.106969e-002
         vertex 1.160697e-001 1.000000e-002 6.415111e-002
         vertex 1.160697e-001 0.000000e+000 6.415111e-002
      endloop
   endfacet
   facet normal 5.972114e-001 0.000000e+000 8.020838e-001
      outer loop
         vertex 1.160697e-001 0.000000e+000 6.415111e-002
         vertex 1.160697e-001 1.000000e-002 6.415111e-002
         vertex 1.125000e-001 1.000000e-002 6.665063e-002
      endloop
   endfacet
   facet normal 5.494540e-001 0.000000e+000 8.355240e-001
      outer loop
         vertex 1.160697e-001 0.000000e+000 6.415111e-002
         vertex 1.125000e-001 1.000000e-002 6.665063e-002
         vertex 1.125000e-001 0.000000e+000 6.665063e-002
      endloop
   endfacet
   facet normal 4.488580e-001 0.000000e+000 8.936031e-001
      outer loop
         vertex 1.125000e-001 0.000000e+000 6.665063e-002
         vertex 1.125000e-001 1.000000e-002 6.665063e-002
         vertex 1.085505e-001 1.000000e-002 6.849232e-002
      endloop
   endfacet
   facet normal 3.960194e-001 0.000000e+000 9.182422e-001
      outer loop
         vertex 1.125000e-001 0.000000e+000 6.665063e-002
         vertex 1.085505e-001 1.000000e-002 6.849232e-002
         vertex 1.085505e-001 0.000000e+000 6.849232e-002
      endloop
   endfacet
   facet normal 2.868663e-001 0.000000e+000 9.579706e-001
      outer loop
         vertex 1.085505e-001 0.000000e+000 6.849232e-002
         vertex 1.085505e-001 1.000000e-002 6.849232e-002
         vertex 1.043412e-001 1.000000e-002 6.962019e-002
      endloop
   endfacet
   facet normal 2.305519e-001 0.000000e+000 9.730600e-001
      outer loop
         vertex 1.085505e-001 0.000000e+000 6.849232e-002
         vertex 1.043412e-001 1.000000e-002 6.962019e-002
         vertex 1.043412e-001 0.000000e+000 6.962019e-002
      endloop
   endfacet
   facet normal 1.161583e-001 0.000000e+000 9.932307e-001
      outer loop
         vertex 1.043412e-001 0.000000e+000 6.962019e-002
         vertex 1.043412e-001 1.000000e-002 6.962019e-002
         vertex 1.000000e-001 1.000000e-002 7.000000e-002
      endloop
   endfacet
   facet normal 5.807913e-002 0.000000e+000 9.983119e-001
      outer loop
         vertex 1.043412e-001 0.000000e+000 6.962019e-002
         vertex 1.000000e-001 1.000000e-002 7.000000e-002
         vertex 1.000000e-001 0.000000e+000 7.000000e-002
      endloop
   endfacet
   facet normal 0.000000e+000 0.000000e+000 1.000000e+000
      outer loop
         vertex 1.000000e-001 0.000000e+000 7.000000e-002
         vertex 1.000000e-001 1.000000e-002 7.000000e-002
         vertex 0.000000e+000 0.000000e+000 7.000000e-002
      endloop
   endfacet
   facet normal 0.000000e+000 0.000000e+000 1.000000e+000
      outer loop
         vertex 0.000000e+000 0.000000e+000 7.000000e-002
         vertex 1.000000e-001 1.000000e-002 7.000000e-002
         vertex 0.000000e+000 1.000000e-002 7.000000e-002
      endloop
   endfacet
   facet normal 0.000000e+000 -1.000000e+000 -1.734723e-016
      outer loop
         vertex 0.000000e+000 0.000000e+000 7.000000e-002
         vertex 0.000000e+000 0.000000e+000 6.000000e-002
         vertex 1.000000e-001 0.000000e+000 7.000000e-002
      endloop
   endfacet
   facet normal 0.000000e+000 -1.000000e+000 -1.734723e-016
      outer loop
         vertex 1.000000e-001 0.000000e+000 7.000000e-002
         vertex 0.000000e+000 0.000000e+000 6.000000e-002
         vertex 1.000000e-001 0.000000e+000 6.000000e-002
      endloop
   endfacet
   facet normal 0.000000e+000 -1.000000e+000 -1.734723e-016
      outer loop
         vertex 1.000000e-001 0.000000e+000 7.000000e-002
         vertex 1.000000e-001 0.000000e+000 6.000000e-002
         vertex 1.043412e-001 0.000000e+000 6.962019e-002
      endloop
   endfacet
   facet normal 0.000000e+000 -1.000000e+000 -1.734723e-016
      outer loop
         vertex 1.043412e-001 0.000000e+000 6.962019e-002
         vertex 1.000000e-001 0.000000e+000 6.000000e-002
         vertex 1.026047e-001 0.000000e+000 5.977212e-002
      endloop
   endfacet
   facet normal 0.000000e+000 -1.000000e+000 -1.734723e-016
      outer loop
         vertex 1.043412e-001 0.000000e+000 6.962019e-002
         vertex 1.026047e-001 0.000000e+000 5.977212e-002
         vertex 1.085505e-001 0.000000e+000 6.849232e-002
      endloop
   endfacet
   facet normal 0.000000e+000 -1.000000e+000 -1.734723e-016
      outer loop
         vertex 1.085505e-001 0.000000e+000 6.849232e-002
         vertex 1.026047e-001 0.000000e+000 5.977212e-002
         vertex 1.051303e-001 0.000000e+000 5.909539e-002
      endloop
   endfacet
   facet normal 0.000000e+000 -1.000000e+000 -1.734723e-016
      outer loop
         vertex 1.085505e-001 0.000000e+000 6.849232e-002
         vertex 1.051303e-001 0.000000e+000 5.909539e-002
         vertex 1.125000e-001 0.000000e+000 6.665063e-002
      endloop
   endfacet
   facet normal 0.000000e+000 -1.000000e+000 -1.734723e-016
      outer loop
         vertex 1.125000e-001 0.000000e+000 6.665063e-002
         vertex 1.051303e-001 0.000000e+000 5.909539e-002
         vertex 1.075000e-001 0.000000e+000 5.799038e-002
      endloop
   endfacet
   facet normal 0.000000e+000 -1.000000e+000 -1.734723e-016
      outer loop
         vertex 1.125000e-001 0.000000e+000 6.665063e-002
         vertex 1.075000e-001 0.000000e+000 5.799038e-002
         vertex 1.160697e-001 0.000000e+000 6.415111e-002
      endloop
   endfacet
   facet normal 0.000000e+000 -1.000000e+000 -1.734723e-016
      outer loop
         vertex 1.160697e-001 0.000000e+000 6.415111e-002
         vertex 1.075000e-001 0.000000e+000 5.799038e-002
         vertex 1.096418e-001 0.000000e+000 5.649066e-002
      endloop
   endfacet
   facet normal 0.000000e+000 -1.000000e+000 -1.734723e-016
      outer loop
         vertex 1.160697e-001 0.000000e+000 6.415111e-002
         vertex 1.096418e-001 0.000000e+000 5.649066e-002
         vertex 1.191511e-001 0.000000e+000 6.106969e-002
      endloop
   endfacet
   facet normal 0.000000e+000 -1.000000e+000 -1.734723e-016
      outer loop
         vertex 1.191511e-001 0.000000e+000 6.106969e-002
         vertex 1.096418e-001 0.000000e+000 5.649066e-002
         vertex 1.114907e-001 0.000000e+000 5.464181e-002
      endloop
   endfacet
   facet normal 0.000000e+000 -1.000000e+000 -1.734723e-016
      outer loop
         vertex 1.191511e-001 0.000000e+000 6.106969e-002
         vertex 1.114907e-001 0.000000e+000 5.464181e-002
         vertex 1.216506e-001 0.000000e+000 5.750000e-002
      endloop
   endfacet
   facet normal 0.000000e+000 -1.000000e+000 -1.734723e-016
      outer loop
         vertex 1.216506e-001 0.000000e+000 5.750000e-002
         vertex 1.114907e-001 0.000000e+000 5.464181e-002
         vertex 1.129904e-001 0.000000e+000 5.250000e-002
      endloop
   endfacet
   facet normal 0.000000e+000 -1.000000e+000 -1.734723e-016
      outer loop
         vertex 1.216506e-001 0.000000e+000 5.750000e-002
         vertex 1.129904e-001 0.000000e+000 5.250000e-002
         vertex 1.234923e-001 0.000000e+000 5.355050e-002
      endloop
   endfacet
   facet normal 0.000000e+000 -1.000000e+000 -1.734723e-016
      outer loop
         vertex 1.234923e-001 0.000000e+000 5.355050e-002
         vertex 1.129904e-001 0.000000e+000 5.250000e-002
         vertex 1.140954e-001 0.000000e+000 5.013030e-002
      endloop
   endfacet
   facet normal 0.000000e+000 -1.000000e+000 -1.734723e-016
      outer loop
         vertex 1.234923e-001 0.000000e+000 5.355050e-002
         vertex 1.140954e-001 0.000000e+000 5.013030e-002
         vertex 1.246202e-001 0.000000e+000 4.934120e-002
      endloop
   endfacet
   facet normal 0.000000e+000 -1.000000e+000 -1.734723e-016
      outer loop
         vertex 1.246202e-001 0.000000e+000 4.934120e-002
         vertex 1.140954e-001 0.000000e+000 5.013030e-002
         vertex 1.147721e-001 0.000000e+000 4.760472e-002
      endloop
   endfacet
   facet normal 0.000000e+000 -1.000000e+000 -1.734723e-016
      outer loop
         vertex 1.246202e-001 0.000000e+000 4.934120e-002
         vertex 1.147721e-001 0.000000e+000 4.760472e-002
         vertex 1.250000e-001 0.000000e+000 4.500000e-002
      endloop
   endfacet
   facet normal 0.000000e+000 -1.000000e+000 -1.734723e-016
      outer loop
         vertex 1.250000e-001 0.000000e+000 4.500000e-002
         vertex 1.147721e-001 0.000000e+000 4.760472e-002
         vertex 1.150000e-001 0.000000e+000 4.500000e-002
      endloop
   endfacet
   facet normal 0.000000e+000 -1.000000e+000 -1.734723e-016
      outer loop
         vertex 1.250000e-001 0.000000e+000 4.500000e-002
         vertex 1.150000e-001 0.000000e+000 4.500000e-002
         vertex 1.250000e-001 0.000000e+000 2.500000e-002
      endloop
   endfacet
   facet normal 0.000000e+000 -1.000000e+000 -1.734723e-016
      outer loop
         vertex 1.250000e-001 0.000000e+000 2.500000e-002
         vertex 1.150000e-001 0.000000e+000 4.500000e-002
         vertex 1.150000e-001 0.000000e+000 2.500000e-002
      endloop
   endfacet
   facet normal 0.000000e+000 -1.000000e+000 -1.734723e-016
      outer loop
         vertex 1.250000e-001 0.000000e+000 2.500000e-002
         vertex 1.150000e-001 0.000000e+000 2.500000e-002
         vertex 1.252279e-001 0.000000e+000 2.239528e-002
      endloop
   endfacet
   facet normal 0.000000e+000 -1.000000e+000 -1.734723e-016
      outer loop
         vertex 1.252279e-001 0.000000e+000 2.239528e-002
         vertex 1.150000e-001 0.000000e+000 2.500000e-002
         vertex 1.153798e-001 0.000000e+000 2.065879e-002
      endloop
   endfacet
   facet normal 0.000000e+000 -1.000000e+000 -1.734723e-016
      outer loop
         vertex 1.252279e-001 0.000000e+000 2.239528e-002
         vertex 1.153798e-001 0.000000e+000 2.065879e-002
         vertex 1.259046e-001 0.000000e+000 1.986970e-002
      endloop
   endfacet
   facet normal 0.000000e+000 -1.000000e+000 -1.734723e-016
      outer loop
         vertex 1.259046e-001 0.000000e+000 1.986970e-002
         vertex 1.153798e-001 0.000000e+000 2.065879e-002
         vertex 1.165077e-001 0.000000e+000 1.644949e-002
      endloop
   endfacet
   facet normal 0.000000e+000 -1.000000e+000 -1.734723e-016
      outer loop
         vertex 1.259046e-001 0.000000e+000 1.986970e-002
         vertex 1.165077e-001 0.000000e+000 1.644949e-002
         vertex 1.270096e-001 0.000000e+000 1.750000e-002
      endloop
   endfacet
   facet normal 0.000000e+000 -1.000000e+000 -1.734723e-016
      outer loop
         vertex 1.270096e-001 0.000000e+000 1.750000e-002
         vertex 1.165077e-001 0.000000e+000 1.644949e-002
         vertex 1.183494e-001 0.000000e+000 1.250000e-002
      endloop
   endfacet
   facet normal 0.000000e+000 -1.000000e+000 -1.734723e-016
      outer loop
         vertex 1.270096e-001 0.000000e+000 1.750000e-002
         vertex 1.183494e-001 0.000000e+000 1.250000e-002
         vertex 1.285093e-001 0.000000e+000 1.535818e-002
      endloop
   endfacet
   facet normal 0.000000e+000 -1.000000e+000 -1.734723e-016
      outer loop
         vertex 1.285093e-001 0.000000e+000 1.535818e-002
         vertex 1.183494e-001 0.000000e+000 1.250000e-002
         vertex 1.208489e-001 0.000000e+000 8.930307e-003
      endloop
   endfacet
   facet normal 0.000000e+000 -1.000000e+000 -1.734723e-016
      outer loop
         vertex 1.285093e-001 0.000000e+000 1.535818e-002
         vertex 1.208489e-001 0.000000e+000 8.930307e-003
         vertex 1.303582e-001 0.000000e+000 1.350933e-002
      endloop
   endfacet
   facet normal 0.000000e+000 -1.000000e+000 -1.734723e-016
      outer loop
         vertex 1.303582e-001 0.000000e+000 1.350933e-002
         vertex 1.208489e-001 0.000000e+000 8.930307e-003
         vertex 1.239303e-001 0.000000e+000 5.848888e-003
      endloop
   endfacet
   facet normal 0.000000e+000 -1.000000e+000 -1.734723e-016
      outer loop
         vertex 1.303582e-001 0.000000e+000 1.350933e-002
         vertex 1.239303e-001 0.000000e+000 5.848888e-003
         vertex 1.325000e-001 0.000000e+000 1.200962e-002
      endloop
   endfacet
   facet normal 0.000000e+000 -1.000000e+000 -1.734723e-016
      outer loop
         vertex 1.325000e-001 0.000000e+000 1.200962e-002
         vertex 1.239303e-001 0.000000e+000 5.848888e-003
         vertex 1.275000e-001 0.000000e+000 3.349364e-003
      endloop
   endfacet
   facet normal 0.000000e+000 -1.000000e+000 -1.734723e-016
      outer loop
         vertex 1.325000e-001 0.000000e+000 1.200962e-002
         vertex 1.275000e-001 0.000000e+000 3.349364e-003
         vertex 1.348697e-001 0.000000e+000 1.090461e-002
      endloop
   endfacet
   facet normal 0.000000e+000 -1.000000e+000 -1.734723e-016
      outer loop
         vertex 1.348697e-001 0.000000e+000 1.090461e-002
         vertex 1.275000e-001 0.000000e+000 3.349364e-003
         vertex 1.314495e-001 0.000000e+000 1.507685e-003
      endloop
   endfacet
   facet normal 0.000000e+000 -1.000000e+000 -1.734723e-016
      outer loop
         vertex 1.348697e-001 0.000000e+000 1.090461e-002
         vertex 1.314495e-001 0.000000e+000 1.507685e-003
         vertex 1.373953e-001 0.000000e+000 1.022788e-002
      endloop
   endfacet
   facet normal 0.000000e+000 -1.000000e+000 -1.734723e-016
      outer loop
         vertex 1.373953e-001 0.000000e+000 1.022788e-002
         vertex 1.314495e-001 0.000000e+000 1.507685e-003
         vertex 1.356588e-001 0.000000e+000 3.798008e-004
      endloop
   endfacet
   facet normal 0.000000e+000 -1.000000e+000 -1.734723e-016
      outer loop
         vertex 1.373953e-001 0.000000e+000 1.022788e-002
         vertex 1.356588e-001 0.000000e+000 3.798008e-004
         vertex 1.400000e-001 0.000000e+000 9.999998e-003
      endloop
   endfacet
   facet normal 0.000000e+000 -1.000000e+000 -1.734723e-016
      outer loop
         vertex 1.400000e-001 0.000000e+000 9.999998e-003
         vertex 1.356588e-001 0.000000e+000 3.798008e-004
         vertex 1.400000e-001 0.000000e+000 0.000000e+000
      endloop
   endfacet
   facet normal 0.000000e+000 -1.000000e+000 -1.734723e-016
      outer loop
         vertex 1.400000e-001 0.000000e+000 9.999998e-003
         vertex 1.400000e-001 0.000000e+000 0.000000e+000
         vertex 2.400000e-001 0.000000e+000 9.999998e-003
      endloop
   endfacet
   facet normal 0.000000e+000 -1.000000e+000 -1.734723e-016
      outer loop
         vertex 2.400000e-001 0.000000e+000 9.999998e-003
         vertex 1.400000e-001 0.000000e+000 0.000000e+000
         vertex 2.400000e-001 0.000000e+000 0.000000e+000
      endloop
   endfacet
   facet normal 0.000000e+000 0.000000e+000 -1.000000e+000
      outer loop
         vertex 1.000000e-001 1.000000e-002 6.000000e-002
         vertex 1.000000e-001 0.000000e+000 6.000000e-002
         vertex 0.000000e+000 1.000000e-002 6.000000e-002
      endloop
   endfacet
   facet normal 0.000000e+000 0.000000e+000 -1.000000e+000
      outer loop
         vertex 0.000000e+000 1.000000e-002 6.000000e-002
         vertex 1.000000e-001 0.000000e+000 6.000000e-002
         vertex 0.000000e+000 0.000000e+000 6.000000e-002
      endloop
   endfacet
   facet normal 0.000000e+000 1.000000e+000 8.673617e-017
      outer loop
         vertex 0.000000e+000 1.000000e-002 6.000000e-002
         vertex 0.000000e+000 1.000000e-002 7.000000e-002
         vertex 1.000000e-001 1.000000e-002 6.000000e-002
      endloop
   endfacet
   facet normal 0.000000e+000 1.000000e+000 8.673617e-017
      outer loop
         vertex 1.000000e-001 1.000000e-002 6.000000e-002
         vertex 0.000000e+000 1.000000e-002 7.000000e-002
         vertex 1.000000e-001 1.000000e-002 7.000000e-002
      endloop
   endfacet
   facet normal 0.000000e+000 1.000000e+000 8.673617e-017
      outer loop
         vertex 1.000000e-001 1.000000e-002 6.000000e-002
         vertex 1.000000e-001 1.000000e-002 7.000000e-002
         vertex 1.026047e-001 1.000000e-002 5.977212e-002
      endloop
   endfacet
   facet normal 0.000000e+000 1.000000e+000 8.673617e-017
      outer loop
         vertex 1.026047e-001 1.000000e-002 5.977212e-002
         vertex 1.000000e-001 1.000000e-002 7.000000e-002
         vertex 1.043412e-001 1.000000e-002 6.962019e-002
      endloop
   endfacet
   facet normal 0.000000e+000 1.000000e+000 8.673617e-017
      outer loop
         vertex 1.026047e-001 1.000000e-002 5.977212e-002
         vertex 1.043412e-001 1.000000e-002 6.962019e-002
         vertex 1.051303e-001 1.000000e-002 5.909539e-002
      endloop
   endfacet
   facet normal 0.000000e+000 1.000000e+000 8.673617e-017
      outer loop
         vertex 1.051303e-001 1.000000e-002 5.909539e-002
         vertex 1.043412e-001 1.000000e-002 6.962019e-002
         vertex 1.085505e-001 1.000000e-002 6.849232e-002
      endloop
   endfacet
   facet normal 0.000000e+000 1.000000e+000 8.673617e-017
      outer loop
         vertex 1.051303e-001 1.000000e-002 5.909539e-002
         vertex 1.085505e-001 1.000000e-002 6.849232e-002
         vertex 1.075000e-001 1.000000e-002 5.799038e-002
      endloop
   endfacet
   facet normal 0.000000e+000 1.000000e+000 8.673617e-017
      outer loop
         vertex 1.075000e-001 1.000000e-002 5.799038e-002
         vertex 1.085505e-001 1.000000e-002 6.849232e-002
         vertex 1.125000e-001 1.000000e-002 6.665063e-002
      endloop
   endfacet
   facet normal 0.000000e+000 1.000000e+000 8.673617e-017
      outer loop
         vertex 1.075000e-001 1.000000e-002 5.799038e-002
         vertex 1.125000e-001 1.000000e-002 6.665063e-002
         vertex 1.096418e-001 1.000000e-002 5.649066e-002
      endloop
   endfacet
   facet normal 0.000000e+000 1.000000e+000 8.673617e-017
      outer loop
         vertex 1.096418e-001 1.000000e-002 5.649066e-002
         vertex 1.125000e-001 1.000000e-002 6.665063e-002
         vertex 1.160697e-001 1.000000e-002 6.415111e-002
      endloop
   endfacet
   facet normal 0.000000e+000 1.000000e+000 8.673617e-017
      outer loop
         vertex 1.096418e-001 1.000000e-002 5.649066e-002
         vertex 1.160697e-001 1.000000e-002 6.415111e-002
         vertex 1.114907e-001 1.000000e-002 5.464181e-002
      endloop
   endfacet
   facet normal 0.000000e+000 1.000000e+000 8.673617e-017
      outer loop
         vertex 1.114907e-001 1.000000e-002 5.464181e-002
         vertex 1.160697e-001 1.000000e-002 6.415111e-002
         vertex 1.191511e-001 1.000000e-002 6.106969e-002
      endloop
   endfacet
   facet normal 0.000000e+000 1.000000e+000 8.673617e-017
      outer loop
         vertex 1.114907e-001 1.000000e-002 5.464181e-002
         vertex 1.191511e-001 1.000000e-002 6.106969e-002
         vertex 1.129904e-001 1.000000e-002 5.250000e-002
      endloop
   endfacet
   facet normal 0.000000e+000 1.000000e+000 8.673617e-017
      outer loop
         vertex 1.129904e-001 1.000000e-002 5.250000e-002
         vertex 1.191511e-001 1.000000e-002 6.106969e-002
         vertex 1.216506e-001 1.000000e-002 5.750000e-002
      endloop
   endfacet
   facet normal 0.000000e+000 1.000000e+000 8.673617e-017
      outer loop
         vertex 1.129904e-001 1.000000e-002 5.250000e-002
         vertex 1.216506e-001 1.000000e-002 5.750000e-002
         vertex 1.140954e-001 1.000000e-002 5.013030e-002
      endloop
   endfacet
   facet normal 0.000000e+000 1.000000e+000 8.673617e-017
      outer loop
         vertex 1.140954e-001 1.000000e-002 5.013030e-002
         vertex 1.216506e-001 1.000000e-002 5.750000e-002
         vertex 1.234923e-001 1.000000e-002 5.355050e-002
      endloop
   endfacet
   facet normal 0.000000e+000 1.000000e+000 8.673617e-017
      outer loop
         vertex 1.140954e-001 1.000000e-002 5.013030e-002
         vertex 1.234923e-001 1.000000e-002 5.355050e-002
         vertex 1.147721e-001 1.000000e-002 4.760472e-002
      endloop
   endfacet
   facet normal 0.000000e+000 1.000000e+000 8.673617e-017
      outer loop
         vertex 1.147721e-001 1.000000e-002 4.760472e-002
         vertex 1.234923e-001 1.000000e-002 5.355050e-002
         vertex 1.246202e-001 1.000000e-002 4.934120e-002
      endloop
   endfacet
   facet normal 0.000000e+000 1.000000e+000 8.673617e-017
      outer loop
         vertex 1.147721e-001 1.000000e-002 4.760472e-002
         vertex 1.246202e-001 1.000000e-002 4.934120e-002
         vertex 1.150000e-001 1.000000e-002 4.500000e-002
      endloop
   endfacet
   facet normal 0.000000e+000 1.000000e+000 8.673617e-017
      outer loop
         vertex 1.150000e-001 1.000000e-002 4.500000e-002
         vertex 1.246202e-001 1.000000e-002 4.934120e-002
         vertex 1.250000e-001 1.000000e-002 4.500000e-002
      endloop
   endfacet
   facet normal 0.000000e+000 1.000000e+000 8.673617e-017
      outer loop
         vertex 1.150000e-001 1.000000e-002 4.500000e-002
         vertex 1.250000e-001 1.000000e-002 4.500000e-002
         vertex 1.150000e-001 1.000000e-002 2.500000e-002
      endloop
   endfacet
   facet normal 0.000000e+000 1.000000e+000 8.673617e-017
      outer loop
         vertex 1.150000e-001 1.000000e-002 2.500000e-002
         vertex 1.250000e-001 1.000000e-002 4.500000e-002
         vertex 1.250000e-001 1.000000e-002 2.500000e-002
      endloop
   endfacet
   facet normal 0.000000e+000 1.000000e+000 8.673617e-017
      outer loop
         vertex 1.150000e-001 1.000000e-002 2.500000e-002
         vertex 1.250000e-001 1.000000e-002 2.500000e-002
         vertex 1.153798e-001 1.000000e-002 2.065879e-002
      endloop
   endfacet
   facet normal 0.000000e+000 1.000000e+000 8.673617e-017
      outer loop
         vertex 1.153798e-001 1.000000e-002 2.065879e-002
         vertex 1.250000e-001 1.000000e-002 2.500000e-002
         vertex 1.252279e-001 1.000000e-002 2.239528e-002
      endloop
   endfacet
   facet normal 0.000000e+000 1.000000e+000 8.673617e-017
      outer loop
         vertex 1.153798e-001 1.000000e-002 2.065879e-002
         vertex 1.252279e-001 1.000000e-002 2.239528e-002
         vertex 1.165077e-001 1.000000e-002 1.644949e-002
      endloop
   endfacet
   facet normal 0.000000e+000 1.000000e+000 8.673617e-017
      outer loop
         vertex 1.165077e-001 1.000000e-002 1.644949e-002
         vertex 1.252279e-001 1.000000e-002 2.239528e-002
         vertex 1.259046e-001 1.000000e-002 1.986970e-002
      endloop
   endfacet
   facet normal 0.000000e+000 1.000000e+000 8.673617e-017
      outer loop
         vertex 1.165077e-001 1.000000e-002 1.644949e-002
         vertex 1.259046e-001 1.000000e-002 1.986970e-002
         vertex 1.183494e-001 1.000000e-002 1.250000e-002
      endloop
   endfacet
   facet normal 0.000000e+000 1.000000e+000 8.673617e-017
      outer loop
         vertex 1.183494e-001 1.000000e-002 1.250000e-002
         vertex 1.259046e-001 1.000000e-002 1.986970e-002
         vertex 1.270096e-001 1.000000e-002 1.750000e-002
      endloop
   endfacet
   facet normal 0.000000e+000 1.000000e+000 8.673617e-017
      outer loop
         vertex 1.183494e-001 1.000000e-002 1.250000e-002
         vertex 1.270096e-001 1.000000e-002 1.750000e-002
         vertex 1.208489e-001 1.000000e-002 8.930307e-003
      endloop
   endfacet
   facet normal 0.000000e+000 1.000000e+000 8.673617e-017
      outer loop
         vertex 1.208489e-001 1.000000e-002 8.930307e-003
         vertex 1.270096e-001 1.000000e-002 1.750000e-002
         vertex 1.285093e-001 1.000000e-002 1.535818e-002
      endloop
   endfacet
   facet normal 0.000000e+000 1.000000e+000 8.673617e-017
      outer loop
         vertex 1.208489e-001 1.000000e-002 8.930307e-003
         vertex 1.285093e-001 1.000000e-002 1.535818e-002
         vertex 1.239303e-001 1.000000e-002 5.848888e-003
      endloop
   endfacet
   facet normal 0.000000e+000 1.000000e+000 8.673617e-017
      outer loop
         vertex 1.239303e-001 1.000000e-002 5.848888e-003
         vertex 1.285093e-001 1.000000e-002 1.535818e-002
         vertex 1.303582e-001 1.000000e-002 1.350933e-002
      endloop
   endfacet
   facet normal 0.000000e+000 1.000000e+000 8.673617e-017
      outer loop
         vertex 1.239303e-001 1.000000e-002 5.848888e-003
         vertex 1.303582e-001 1.000000e-002 1.350933e-002
         vertex 1.275000e-001 1.000000e-002 3.349364e-003
      endloop
   endfacet
   facet normal 0.000000e+000 1.000000e+000 8.673617e-017
      outer loop
         vertex 1.275000e-001 1.000000e-002 3.349364e-003
         vertex 1.303582e-001 1.000000e-002 1.350933e-002
         vertex 1.325000e-001 1.000000e-002 1.200962e-002
      endloop
   endfacet
   facet normal 0.000000e+000 1.000000e+000 8.673617e-017
      outer loop
         vertex 1.275000e-001 1.000000e-002 3.349364e-003
         vertex 1.325000e-001 1.000000e-002 1.200962e-002
         vertex 1.314495e-001 1.000000e-002 1.507685e-003
      endloop
   endfacet
   facet normal 0.000000e+000 1.000000e+000 8.673617e-017
      outer loop
         vertex 1.314495e-001 1.000000e-002 1.507685e-003
         vertex 1.325000e-001 1.000000e-002 1.200962e-002
         vertex 1.348697e-001 1.000000e-002 1.090461e-002
      endloop
   endfacet
   facet normal 0.000000e+000 1.000000e+000 8.673617e-017
      outer loop
         vertex 1.314495e-001 1.000000e-002 1.507685e-003
         vertex 1.348697e-001 1.000000e-002 1.090461e-002
         vertex 1.356588e-001 1.000000e-002 3.798008e-004
      endloop
   endfacet
   facet normal 0.000000e+000 1.000000e+000 8.673617e-017
      outer loop
         vertex 1.356588e-001 1.000000e-002 3.798008e-004
         vertex 1.348697e-001 1.000000e-002 1.090461e-002
         vertex 1.373953e-001 1.000000e-002 1.022788e-002
      endloop
   endfacet
   facet normal 0.000000e+000 1.000000e+000 8.673617e-017
      outer loop
         vertex 1.356588e-001 1.000000e-002 3.798008e-004
         vertex 1.373953e-001 1.000000e-002 1.022788e-002
         vertex 1.400000e-001 1.000000e-002 0.000000e+000
      endloop
   endfacet
   facet normal 0.000000e+000 1.000000e+000 8.673617e-017
      outer loop
         vertex 1.400000e-001 1.000000e-002 0.000000e+000
         vertex 1.373953e-001 1.000000e-002 1.022788e-002
         vertex 1.400000e-001 1.000000e-002 9.999998e-003
      endloop
   endfacet
   facet normal 0.000000e+000 1.000000e+000 8.673617e-017
      outer loop
         vertex 1.400000e-001 1.000000e-002 0.000000e+000
         vertex 1.400000e-001 1.000000e-002 9.999998e-003
         vertex 2.400000e-001 1.000000e-002 0.000000e+000
      endloop
   endfacet
   facet normal 0.000000e+000 1.000000e+000 8.673617e-017
      outer loop
         vertex 2.400000e-001 1.000000e-002 0.000000e+000
         vertex 1.400000e-001 1.000000e-002 9.999998e-003
         vertex 2.400000e-001 1.000000e-002 9.999998e-003
      endloop
   endfacet
endsolid

solid outlet
   facet normal 1.000000e+000 0.000000e+000 0.000000e+000
      outer loop
         vertex 2.400000e-001 0.000000e+000 0.000000e+000
         vertex 2.400000e-001 1.000000e-002 0.000000e+000
         vertex 2.400000e-001 0.000000e+000 9.999998e-003
      endloop
   endfacet
   facet normal 1.000000e+000 0.000000e+000 0.000000e+000
      outer loop
         vertex 2.400000e-001 0.000000e+000 9.999998e-003
         vertex 2.400000e-001 1.000000e-002 0.000000e+000
         vertex 2.400000e-001 1.000000e-002 9.999998e-003
      endloop
   endfacet
endsolid

solid inlet
   facet normal -1.000000e+000 0.000000e+000 0.000000e+000
      outer loop
         vertex 0.000000e+000 1.000000e-002 6.000000e-002
         vertex 0.000000e+000 0.000000e+000 6.000000e-002
         vertex 0.000000e+000 1.000000e-002 7.000000e-002
      endloop
   endfacet
   facet normal -1.000000e+000 0.000000e+000 0.000000e+000
      outer loop
         vertex 0.000000e+000 1.000000e-002 7.000000e-002
         vertex 0.000000e+000 0.000000e+000 6.000000e-002
         vertex 0.000000e+000 0.000000e+000 7.000000e-002
      endloop
   endfacet
endsolid
